<svg xmlns="http://www.w3.org/2000/svg" xmlns:xlink="http://www.w3.org/1999/xlink" xmlns:inkscape="http://www.inkscape.org/namespaces/inkscape" version="1.1" width="225" height="157" viewBox="0 0 225 157">
<defs>
<path id="font_1_27" d="M.73599246 0V.0309906H.71899417C.6569977 .0309906 .6459961 .039978029 .6359863 .06794739L.40899659 .69480898C.4039917 .70780947 .40098573 .7158203 .3849945 .7158203 .36898805 .7158203 .36698915 .70980837 .36099244 .6938019L.1459961 .09989929C.13398743 .06694031 .11099243 .03199768 .033996583 .0309906V0C.07199097 .0029907227 .09899902 .0029907227 .13598633 .0029907227L.24899292 0V.0309906C.19198609 .03199768 .1749878 .06295776 .1749878 .08192444 .1749878 .090911868 .1769867 .09590149 .1789856 .10090637L.22599793 .22973633H.4850006L.5389862 .078933719C.54299929 .06893921 .5439911 .06594849 .5439911 .060958864 .5439911 .0309906 .48799134 .0309906 .46199037 .0309906V0C.5069885 .0029907227 .5589905 .0029907227 .6049957 .0029907227L.73599246 0M.47299195 .2607422H.23699951L.35499574 .5877838 .47299195 .2607422Z"/>
<path id="font_1_34" d="M.66999819 .18199158C.66999819 .27198792 .58299258 .34498597 .47200013 .35699464 .57099917 .37677003 .6409912 .43974305 .6409912 .51368716 .6409912 .6016388 .54499819 .6826172 .41299439 .6826172H.040985109V.6516113H.06399536C.14099121 .6516113 .14299011 .64060977 .14299011 .6036377V.07896423C.14299011 .041992189 .14099121 .0309906 .06399536 .0309906H.040985109V0H.44099427C.57598879-.00022888184 .66999819 .088760379 .66999819 .1817627V.18199158M.54499819 .51368716C.54499819 .4367218 .47799684 .36776734 .38398744 .36776734H.22698975V.6106262C.22698975 .64460757 .22898865 .6516113 .27598573 .6516113H.4059906C.5039978 .6517639 .54499819 .573761 .54499819 .5137634V.51368716M.57099917 .18388367C.57099917 .106933597 .5109863 .0309906 .4079895 .0309906H.27598573C.22898865 .0309906 .22698975 .037994386 .22698975 .07196045V.34277345H.41600038C.5319977 .34298707 .57099917 .24499512 .57099917 .18399048V.18388367Z"/>
<path id="font_1_42" d="M.6839905 .23170471C.6839905 .24171448 .6839905 .25073243 .66999819 .25073243 .6569977 .25073243 .6569977 .24372864 .6559906 .2347107 .647995 .082595828 .5279999 .008529663 .4249878 .008529663 .33999635 .008529663 .15899658 .061569215 .15899658 .34179688 .15899658 .6210327 .34098817 .67407229 .42399598 .67407229 .522995 .67407229 .6279907 .5990143 .6519928 .4368744 .6539917 .4238739 .6549988 .41886903 .66799929 .41886903 .6839905 .41886903 .6839905 .4238739 .6839905 .44488526V.67907717C.6839905 .69607546 .6839905 .7050781 .6719971 .7050781 .6649933 .7050781 .6619873 .70207217 .6559906 .69306948L.6049957 .61802676C.57299807 .64904788 .5159912 .7050781 .4149933 .7050781 .22099304 .7050781 .056991579 .5439606 .056991579 .34179688 .056991579 .13563538 .22299195-.022460938 .4149933-.022460938 .58099368-.022460938 .6839905 .11462402 .6839905 .23170471Z"/>
<path id="font_1_46" d="M.72698977 .33580018C.72698977 .52568057 .58799746 .6826172 .4119873 .6826172H.039993287V.6516113H.06298828C.13999939 .6516113 .14199829 .64060977 .14199829 .6036377V.07896423C.14199829 .041992189 .13999939 .0309906 .06298828 .0309906H.039993287V0H.4119873C.58499148 0 .72698977 .1479187 .72698977 .33580018M.6279907 .33580018C.6279907 .29483033 .6279907 .18989563 .57299807 .11993408 .5209961 .051986696 .44898988 .0309906 .38598634 .0309906H.27799989C.23098755 .0309906 .22898865 .037994386 .22898865 .07196045V.6106262C.22898865 .64460757 .23098755 .6516113 .27799989 .6516113H.3849945C.48199464 .6516113 .5419922 .6006317 .56900027 .56466677 .61299136 .5066986 .6279907 .43473817 .6279907 .33580018Z"/>
<path id="font_1_49" d="M.6689911 .2579193H.6409912C.6159973 .10296631 .58999636 .0309906 .4189911 .0309906H.2789917C.23199463 .0309906 .22999573 .037994386 .22999573 .07197571V.33789063H.32299806C.42099 .33789063 .43299867 .30690003 .43299867 .220932H.46099855V.48606874H.43299867C.43299867 .39994813 .42099 .36888124 .32299806 .36888124H.22999573V.6077728C.22999573 .6416931 .23199463 .64868167 .2789917 .64868167H.41299439C.56900027 .64868167 .5970001 .59480288 .61299136 .45507813H.6409912L.61299136 .6796875H.037994386V.64868167H.06098938C.13798523 .64868167 .13999939 .6377106 .13999939 .60079959V.07899475C.13999939 .041992189 .13798523 .0309906 .06098938 .0309906H.037994386V0H.6259918L.6689911 .2579193Z"/>
<path id="font_1_54" d="M.6269989 .4550171 .598999 .6796875H.037994386V.64868167H.06098938C.13798523 .64868167 .13999939 .6376953 .13999939 .60076907V.07902527C.13999939 .041992189 .13798523 .0309906 .06098938 .0309906H.037994386V0C.08299255 .0029907227 .14498902 .0029907227 .19099427 .0029907227 .23098755 .0029907227 .32199098 .0029907227 .35699464 0V.0309906H.32499696C.23399353 .0309906 .22999573 .042999269 .22999573 .08001709V.3251953H.31999208C.4169922 .3251953 .42799378 .29318238 .42799378 .20819092H.45599366V.47299195H.42799378C.42799378 .38813783 .4169922 .3561859 .31999208 .3561859H.22999573V.60775759C.22999573 .6416931 .23199463 .64868167 .2789917 .64868167H.40499879C.55799868 .64868167 .58299258 .59277346 .598999 .4550171H.6269989Z"/>
<path id="font_1_58" d="M.7549896 .24243164V.2734375C.6899872 .27043153 .67900088 .27043153 .6259918 .27043153 .58699038 .27043153 .5009918 .27043153 .46598817 .2734375V.24243164H.49798585C.59098818 .24243164 .59399417 .23043823 .59399417 .19345093V.1304779C.59399417 .008529663 .44198609 .008529663 .42900086 .008529663 .34700013 .008529663 .15899658 .057510377 .15899658 .34153749 .15899658 .62098696 .34098817 .67407229 .42399598 .67407229 .522995 .67407229 .6279907 .59895327 .6519928 .43669129 .6539917 .42367555 .6549988 .4186554 .66799929 .4186554 .6839905 .4186554 .6839905 .42367555 .6839905 .44470216V.67907717C.6839905 .69607546 .6839905 .7050781 .6719971 .7050781 .6649933 .7050781 .6619873 .70207217 .6559906 .69306948L.6049957 .61798098C.57299807 .6490326 .5159912 .7050781 .4149933 .7050781 .22099304 .7050781 .056991579 .54385378 .056991579 .34153749 .056991579 .13748169 .21998596-.022460938 .41600038-.022460938 .5099945-.022460938 .58200076 .013534546 .6100006 .06251526 .6269989 .03552246 .6629944 .0005340576 .6729889 .0005340576 .6839905 .0005340576 .6839905 .009536743 .6839905 .025527955V.19744873C.6839905 .23742676 .6879883 .24243164 .7549896 .24243164Z"/>
<path id="font_1_62" d="M.7319946 0V.0309906H.70899966C.6319885 .0309906 .6299896 .041992189 .6299896 .07896423V.60365298C.6299896 .640625 .6319885 .6516113 .70899966 .6516113H.7319946V.6826172C.68699648 .6796112 .6309967 .6796112 .58499148 .6796112 .5389862 .6796112 .48298646 .6796112 .43798829 .6826172V.6516113H.46099855C.5379944 .6516113 .5399933 .640625 .5399933 .60365298V.37083436H.22999573V.60365298C.22999573 .640625 .23199463 .6516113 .30899049 .6516113H.33198548V.6826172C.2869873 .6796112 .23098755 .6796112 .18499756 .6796112 .13899231 .6796112 .08299255 .6796112 .037994386 .6826172V.6516113H.06098938C.13798523 .6516113 .13999939 .640625 .13999939 .60365298V.07896423C.13999939 .041992189 .13798523 .0309906 .06098938 .0309906H.037994386V0C.08299255 .0029907227 .13899231 .0029907227 .18499756 .0029907227 .23098755 .0029907227 .2869873 .0029907227 .33198548 0V.0309906H.30899049C.23199463 .0309906 .22999573 .041992189 .22999573 .07896423V.33984376H.5399933V.07896423C.5399933 .041992189 .5379944 .0309906 .46099855 .0309906H.43798829V0C.48298646 .0029907227 .5389862 .0029907227 .58499148 .0029907227 .6309967 .0029907227 .68699648 .0029907227 .7319946 0Z"/>
<path id="font_1_65" d="M.33699037 0V.0309906H.31199647C.23199463 .0309906 .22999573 .04298401 .22999573 .07896423V.6036377C.22999573 .6396179 .23199463 .6516113 .31199647 .6516113H.33699037V.6826172C.29599 .6796112 .22799683 .6796112 .18499756 .6796112 .14199829 .6796112 .07398987 .6796112 .032989503 .6826172V.6516113H.057998659C.13798523 .6516113 .13999939 .6396179 .13999939 .6036377V.07896423C.13999939 .04298401 .13798523 .0309906 .057998659 .0309906H.032989503V0C.07398987 .0029907227 .14199829 .0029907227 .18499756 .0029907227 .22799683 .0029907227 .29599 .0029907227 .33699037 0Z"/>
<path id="font_1_67" d="M.47499085 .6516113V.6826172C.40899659 .6796112 .39698792 .6796112 .34298707 .6796112 .30299378 .6796112 .21499634 .6796112 .17999268 .6826172V.6516113H.21398926C.30899049 .6516113 .31199647 .63960269 .31199647 .6026001V.14756775C.31199647 .05555725 .2599945 .002532959 .20799256 .002532959 .16799927 .002532959 .11999512 .02154541 .09498596 .059570314 .13398743 .05555725 .15699768 .08256531 .15699768 .11355591 .15699768 .14356995 .1349945 .16755677 .102996829 .16755677 .07199097 .16755677 .04798889 .14656067 .04798889 .11155701 .04798889 .03855896 .117996219-.022460938 .20999146-.022460938 .29499818-.022460938 .38398744 .029541016 .397995 .12556458 .39898683 .13356018 .39898683 .17756653 .39898683 .2035675V.61061099C.39898683 .6516113 .4139862 .6516113 .47499085 .6516113Z"/>
<path id="font_1_69" d="M.7549896 0V.0309906C.69200137 .0309906 .6779938 .039993287 .6459961 .08595276L.4119873 .41775514 .598999 .5906372C.6619873 .6496124 .723999 .65060427 .7409973 .6516113V.6826172C.71199038 .6796112 .6619873 .6796112 .6519928 .6796112L.5279999 .6826172V.6516113C.55599978 .65060427 .57099917 .637619 .57099917 .6186218 .57099917 .6106262 .56799319 .6026306 .5629883 .5956421L.22999573 .28782655V.6036377C.22999573 .64060977 .23199463 .6516113 .30899049 .6516113H.33198548V.6826172C.2869873 .6796112 .23098755 .6796112 .18499756 .6796112 .13899231 .6796112 .08299255 .6796112 .037994386 .6826172V.6516113H.06098938C.13798523 .6516113 .13999939 .64060977 .13999939 .6036377V.07896423C.13999939 .041992189 .13798523 .0309906 .06098938 .0309906H.037994386V0C.08299255 .0029907227 .13899231 .0029907227 .18499756 .0029907227 .23098755 .0029907227 .2869873 .0029907227 .33198548 0V.0309906H.30899049C.23199463 .0309906 .22999573 .041992189 .22999573 .07896423V.24986267L.35198976 .3627777 .5389862 .096954349C.5469971 .08595276 .55599978 .07096863 .55599978 .05996704 .55599978 .0309906 .5169983 .0309906 .49899293 .0309906V0C.54299929 .0029907227 .59298709 .0029907227 .6380005 .0029907227 .6639862 .0029907227 .70399478 .0029907227 .7549896 0Z"/>
<path id="font_1_71" d="M.59799197 .25785829H.56999209C.5589905 .15692139 .54499819 .0309906 .3659973 .0309906H.2789917C.23199463 .0309906 .22999573 .037994386 .22999573 .07196045V.6026306C.22999573 .6396179 .23399353 .6516113 .32499696 .6516113H.35699464V.6826172C.32199098 .6796112 .23098755 .6796112 .19099427 .6796112 .14498902 .6796112 .08299255 .6796112 .037994386 .6826172V.6516113H.06098938C.13798523 .6516113 .13999939 .64060977 .13999939 .6036377V.07896423C.13999939 .041992189 .13798523 .0309906 .06098938 .0309906H.037994386V0H.56999209L.59799197 .25785829Z"/>
<path id="font_2_106" d="M.48599244 .17131043C.48599244 .25431825 .41999818 .330307 .31799317 .35231019 .39698792 .38031007 .45599366 .44831849 .45599366 .5283203 .45599366 .6080475 .3659973 .66503909 .2619934 .66503909 .15499878 .66503909 .07398987 .6070404 .07398987 .53105166 .07398987 .49404908 .09899902 .4780426 .125 .4780426 .1559906 .4780426 .17599488 .5000458 .17599488 .52905276 .17599488 .56604006 .14399719 .5800476 .12199402 .5810547 .1639862 .6360321 .24099732 .6390381 .25898744 .6390381 .2849884 .63931277 .36099244 .63131716 .36099244 .5283203 .36099244 .458313 .33198548 .41630555 .31799317 .40031434 .28799439 .36930848 .2649994 .36730958 .20399475 .36331178 .18499756 .36231996 .1769867 .36131288 .1769867 .34831239 .1769867 .3343048 .18598938 .3343048 .20298767 .3343048H.25299073C.33198548 .3343048 .38198854 .27630616 .38198854 .17131043 .38198854 .045440675 .31098939 .008514404 .2579956 .008514404 .20298767 .008514404 .12799073 .0284729 .09298706 .08137512 .1289978 .08137512 .1539917 .10437012 .1539917 .13737488 .1539917 .16937256 .1309967 .19238281 .09899902 .19238281 .07199097 .19238281 .04399109 .17536927 .04399109 .13537598 .04399109 .04045105 .1459961-.021484375 .2599945-.021484375 .3929901-.021484375 .48599244 .070388797 .48599244 .17037964V.17131043Z"/>
<path id="font_2_56" d="M.47698976 .19924927C.47698976 .31576539 .3929901 .4189453 .2749939 .4189453 .22499085 .4189453 .17799378 .40293885 .13999939 .36886598V.5618439C.15299988 .55784609 .19299317 .54785159 .23498535 .54785159 .3600006 .54785159 .43598939 .63586428 .43598939 .6509552 .43598939 .6620178 .42900086 .66503909 .42399598 .66503909 .42399598 .66503909 .41999818 .66503909 .41099549 .66000369 .37199403 .6449127 .32598878 .632843 .27198792 .632843 .21299744 .632843 .1639862 .64793398 .1329956 .66000369 .12298584 .66503909 .11999512 .66503909 .11999512 .66503909 .10699463 .66503909 .10699463 .6539612 .10699463 .63586428V.34277345C.10699463 .32476808 .10699463 .3127594 .12298584 .3127594 .1309967 .3127594 .13398743 .31677247 .13899231 .32476808 .15098572 .33976747 .18899536 .39093019 .27398683 .39093019 .32998658 .39093019 .35699464 .34477235 .3659973 .3257599 .3829956 .2896576 .3849945 .24345398 .3849945 .20426941 .3849945 .16725159 .38398744 .11325073 .35598756 .069366458 .33699037 .03942871 .29699708 .008514404 .24398804 .008514404 .1789856 .008514404 .114990238 .04940796 .09199524 .11425781 .09498596 .11387634 .101989749 .11387634 .101989749 .11387634 .12998963 .11387634 .1519928 .13188172 .1519928 .16288758 .1519928 .19989014 .12298584 .21289063 .102996829 .21289063 .084991458 .21289063 .052993776 .20288086 .052993776 .15988159 .052993776 .069732669 .1309967-.021484375 .24598694-.021484375 .37098695-.021743775 .47698976 .07525635 .47698976 .19924927Z"/>
<path id="font_2_57" d="M.5 .1640625V.197052H.3939972V.64682009C.3939972 .6668091 .3939972 .6748047 .37298585 .6748047 .3600006 .6748047 .35899354 .6737976 .34899903 .6598053L.02999878 .197052V.1640625H.31199647V.08100891C.31199647 .04399109 .30899049 .032989503 .23199463 .032989503H.20899964V0L.35299684 .0029907227 .49699403 0V.032989503H.47399903C.39698792 .032989503 .3939972 .04399109 .3939972 .08100891V.1640625H.5M.31900025 .197052H.06498718L.31900025 .56585696V.197052Z"/>
<path id="font_2_107" d="M.47698976 .17900086H.44599916C.44299317 .15899658 .43499757 .10899353 .4229889 .08999634 .4169922 .08198547 .34098817 .08198547 .32499696 .08198547H.14698792L.28199769 .20399475C.2979889 .2190094 .33999635 .2519989 .35598756 .26600648 .41799928 .3230133 .47698976 .37802125 .47698976 .46902467 .47698976 .58802798 .3769989 .66503909 .2519989 .66503909 .13198853 .6651764 .052993776 .574173 .052993776 .48516847 .052993776 .4361725 .09199524 .4291687 .10598755 .4291687 .1269989 .4291687 .1579895 .4441681 .1579895 .48217774 .1579895 .5341797 .10798645 .5341797 .09599304 .5341797 .125 .6070709 .19198609 .6320343 .24099732 .6320343 .33399964 .6320343 .38198854 .55314639 .38198854 .46917726 .38198854 .36517335 .30899049 .2891693 .19099427 .16816712L.06498718 .03817749C.052993776 .026992798 .052993776 .024993897 .052993776 0H.44799806L.47698976 .17900086Z"/>
<path id="font_2_101" d="M.48599244 .20263672C.48599244 .33372499 .3869934 .42578126 .27598573 .42578126 .20399475 .42578126 .16099549 .37976075 .13798523 .33073426 .13798523 .41377259 .14498902 .4868164 .18099976 .54782107 .21099854 .5978241 .2619934 .6390381 .32499696 .6390381 .34498597 .6390381 .3909912 .63601687 .4139862 .60084536 .36898805 .5988312 .36499024 .5648346 .36499024 .553833 .36499024 .5238342 .3880005 .50683596 .4119873 .50683596 .42999269 .50683596 .45899964 .51782229 .45899964 .5558319 .45899964 .615921 .4139862 .66503909 .32398988 .66503909 .18499756 .66503909 .04399109 .53282168 .04399109 .31672669 .04399109 .045532228 .16999817-.021484375 .2669983-.021484375 .31498719-.021224976 .36698915-.008224487 .4119873 .03477478 .45199586 .073776248 .48599244 .11578369 .48599244 .20277405V.20263672M.3919983 .20378113C.3919983 .152771 .3919983 .10877991 .37199403 .072784427 .34599305 .026779175 .31098939 .0087890629 .2669983 .0087890629 .21398926 .0087890629 .18099976 .045776369 .1659851 .073776248 .14299011 .118774417 .14099121 .18678284 .14099121 .22477722 .14099121 .32377626 .19499207 .3977661 .27198792 .3977661 .32199098 .3977661 .35198976 .37176515 .37098695 .33677674 .3919983 .29977418 .3919983 .254776 .3919983 .20378113Z"/>
<path id="font_2_100" d="M.5149994 .6435547H.26098634C.23599243 .6435547 .20498657 .64456179 .17999268 .6465759 .12799073 .65060427 .1269989 .65966799 .12399292 .67578127H.09298706L.05899048 .46455384H.08999634C.09199524 .47955323 .102996829 .54855349 .116989139 .5565491 .12799073 .56155398 .20298767 .56155398 .21798706 .56155398H.42999269L.32699586 .42355348C.21299744 .27153016 .18899536 .11351013 .18899536 .03451538 .18899536 .024505616 .18899536-.021484375 .23599243-.021484375 .2829895-.021484375 .2829895 .023513794 .2829895 .035507204V.08351135C.2829895 .2275238 .30699159 .34553529 .35598756 .41053773L.5059967 .608551C.5149994 .6195526 .5149994 .6215515 .5149994 .6435547Z"/>
<path id="font_2_51" d="M.48599244 .16799927C.48599244 .23098755 .45199586 .272995 .43598939 .2899933 .4189911 .30599977 .41799928 .30699159 .33198548 .36099244 .3880005 .388031 .45599366 .43803407 .45599366 .516037 .45599366 .6110382 .35899354 .66503909 .2659912 .66503909 .1599884 .66503909 .07398987 .59202578 .07398987 .49803163 .07398987 .46102906 .08699036 .42703248 .11199951 .3980255 .1289978 .37702943 .1329956 .37503053 .19499207 .33602906 .070999149 .28050233 .04399109 .20750427 .04399109 .15150452 .04399109 .041503908 .15499878-.021484375 .2639923-.021484375 .3869934-.021484375 .48599244 .06150818 .48599244 .16751099V.16799927M.4059906 .5155029C.4059906 .45750428 .36099244 .4085083 .3019867 .37950135L.1769867 .45451356C.147995 .4718933 .12399292 .5009155 .12399292 .5359497 .12399292 .598999 .19299317 .6390381 .2639923 .6390381 .34199525 .6390381 .4059906 .5859833 .4059906 .5159302V.5155029M.42900086 .13360596C.42900086 .056549074 .34799195 .008514404 .2659912 .008514404 .1769867 .008987427 .100997928 .069992069 .100997928 .1519928 .100997928 .22698975 .15699768 .28599549 .22599793 .31799317L.36099244 .23498535C.3769989 .22599793 .42900086 .19400025 .42900086 .13398743V.13360596Z"/>
<path id="font_2_78" d="M.48599244 .3287964C.48599244 .58898928 .37098695 .66503909 .2679901 .66503909 .1499939 .66503909 .04399109 .5729828 .04399109 .44187928 .04399109 .31278993 .14099121 .21875 .2539978 .21875 .32499696 .21875 .36799623 .26374818 .3919983 .31478883V.29478456C.3919983 .05055237 .27598573 .008514404 .21798706 .008514404 .19699097 .008514404 .14498902 .011505127 .117996219 .042541505 .1619873 .046707155 .16499329 .079711917 .16499329 .08970642 .16499329 .1197052 .14199829 .13671875 .117996219 .13671875 .099990848 .13671875 .070999149 .12571717 .070999149 .08770752 .070999149 .019577027 .1269989-.021484375 .21899414-.021484375 .35598756-.021484375 .48599244 .114715579 .48599244 .32873536V.3287964M.3899994 .42074586C.3899994 .34173585 .34700013 .24674988 .2579956 .24674988 .21199036 .24674988 .18299866 .26774598 .16099549 .30474855 .13798523 .34199525 .13798523 .3899994 .13798523 .44099427 .13798523 .5000305 .13798523 .54203799 .16499329 .58303835 .18998719 .6190338 .22200012 .6390381 .2689972 .6390381 .33599855 .6390381 .36499024 .57302859 .36799623 .5680237 .3889923 .5190277 .3899994 .44102479 .3899994 .42103578V.42074586Z"/>
</defs>
<path transform="matrix(1.00002,0,0,-1.00008,10.599831,146.37642)" d="M8.50403 136.06433C8.50403 140.76102 4.69669 144.56836 0 144.56836-4.69669 144.56836-8.50403 140.76102-8.50403 136.06433-8.50403 131.36763-4.69669 127.56029 0 127.56029 4.69669 127.56029 8.50403 131.36763 8.50403 136.06433ZM0 136.06433" fill="#ffffff"/>
<path transform="matrix(1.00002,0,0,-1.00008,10.599831,146.37642)" stroke-width=".3985" stroke-linecap="butt" stroke-miterlimit="10" stroke-linejoin="miter" fill="none" stroke="#000000" d="M8.50403 136.06433C8.50403 140.76102 4.69669 144.56836 0 144.56836-4.69669 144.56836-8.50403 140.76102-8.50403 136.06433-8.50403 131.36763-4.69669 127.56029 0 127.56029 4.69669 127.56029 8.50403 131.36763 8.50403 136.06433ZM0 136.06433"/>
<use data-text="A" xlink:href="#font_1_27" transform="matrix(8.966579,0,0,-8.967117,7.142761,13.511795)"/>
<path transform="matrix(1.00002,0,0,-1.00008,10.599831,146.37642)" d="M76.5362 136.06433C76.5362 140.76102 72.72885 144.56836 68.03217 144.56836 63.33546 144.56836 59.52812 140.76102 59.52812 136.06433 59.52812 131.36763 63.33546 127.56029 68.03217 127.56029 72.72885 127.56029 76.5362 131.36763 76.5362 136.06433ZM68.03217 136.06433" fill="#ffffff"/>
<path transform="matrix(1.00002,0,0,-1.00008,10.599831,146.37642)" stroke-width=".3985" stroke-linecap="butt" stroke-miterlimit="10" stroke-linejoin="miter" fill="none" stroke="#000000" d="M76.5362 136.06433C76.5362 140.76102 72.72885 144.56836 68.03217 144.56836 63.33546 144.56836 59.52812 140.76102 59.52812 136.06433 59.52812 131.36763 63.33546 127.56029 68.03217 127.56029 72.72885 127.56029 76.5362 131.36763 76.5362 136.06433ZM68.03217 136.06433"/>
<use data-text="B" xlink:href="#font_1_34" transform="matrix(8.966579,0,0,-8.967117,75.369129,13.363785)"/>
<path transform="matrix(1.00002,0,0,-1.00008,10.599831,146.37642)" d="M144.56836 136.06433C144.56836 140.76102 140.76102 144.56836 136.06433 144.56836 131.36763 144.56836 127.56029 140.76102 127.56029 136.06433 127.56029 131.36763 131.36763 127.56029 136.06433 127.56029 140.76102 127.56029 144.56836 131.36763 144.56836 136.06433ZM136.06433 136.06433" fill="#ffffff"/>
<path transform="matrix(1.00002,0,0,-1.00008,10.599831,146.37642)" stroke-width=".3985" stroke-linecap="butt" stroke-miterlimit="10" stroke-linejoin="miter" fill="none" stroke="#000000" d="M144.56836 136.06433C144.56836 140.76102 140.76102 144.56836 136.06433 144.56836 131.36763 144.56836 127.56029 140.76102 127.56029 136.06433 127.56029 131.36763 131.36763 127.56029 136.06433 127.56029 140.76102 127.56029 144.56836 131.36763 144.56836 136.06433ZM136.06433 136.06433"/>
<use data-text="C" xlink:href="#font_1_42" transform="matrix(8.966579,0,0,-8.967117,143.34049,13.363785)"/>
<path transform="matrix(1.00002,0,0,-1.00008,10.599831,146.37642)" d="M212.60053 136.06433C212.60053 140.76102 208.7932 144.56836 204.0965 144.56836 199.3998 144.56836 195.59247 140.76102 195.59247 136.06433 195.59247 131.36763 199.3998 127.56029 204.0965 127.56029 208.7932 127.56029 212.60053 131.36763 212.60053 136.06433ZM204.0965 136.06433" fill="#ffffff"/>
<path transform="matrix(1.00002,0,0,-1.00008,10.599831,146.37642)" stroke-width=".3985" stroke-linecap="butt" stroke-miterlimit="10" stroke-linejoin="miter" fill="none" stroke="#000000" d="M212.60053 136.06433C212.60053 140.76102 208.7932 144.56836 204.0965 144.56836 199.3998 144.56836 195.59247 140.76102 195.59247 136.06433 195.59247 131.36763 199.3998 127.56029 204.0965 127.56029 208.7932 127.56029 212.60053 131.36763 212.60053 136.06433ZM204.0965 136.06433"/>
<use data-text="D" xlink:href="#font_1_46" transform="matrix(8.966579,0,0,-8.967117,211.18085,13.363785)"/>
<path transform="matrix(1.00002,0,0,-1.00008,10.599831,146.37642)" d="M8.50403 68.03217C8.50403 72.72885 4.69669 76.5362 0 76.5362-4.69669 76.5362-8.50403 72.72885-8.50403 68.03217-8.50403 63.33546-4.69669 59.52812 0 59.52812 4.69669 59.52812 8.50403 63.33546 8.50403 68.03217ZM0 68.03217" fill="#ffffff"/>
<path transform="matrix(1.00002,0,0,-1.00008,10.599831,146.37642)" stroke-width=".3985" stroke-linecap="butt" stroke-miterlimit="10" stroke-linejoin="miter" fill="none" stroke="#000000" d="M8.50403 68.03217C8.50403 72.72885 4.69669 76.5362 0 76.5362-4.69669 76.5362-8.50403 72.72885-8.50403 68.03217-8.50403 63.33546-4.69669 59.52812 0 59.52812 4.69669 59.52812 8.50403 63.33546 8.50403 68.03217ZM0 68.03217"/>
<use data-text="E" xlink:href="#font_1_49" transform="matrix(8.966579,0,0,-8.967117,7.465767,81.38722)"/>
<path transform="matrix(1.00002,0,0,-1.00008,10.599831,146.37642)" d="M76.5362 68.03217C76.5362 72.72885 72.72885 76.5362 68.03217 76.5362 63.33546 76.5362 59.52812 72.72885 59.52812 68.03217 59.52812 63.33546 63.33546 59.52812 68.03217 59.52812 72.72885 59.52812 76.5362 63.33546 76.5362 68.03217ZM68.03217 68.03217" fill="#ffffff"/>
<path transform="matrix(1.00002,0,0,-1.00008,10.599831,146.37642)" stroke-width=".3985" stroke-linecap="butt" stroke-miterlimit="10" stroke-linejoin="miter" fill="none" stroke="#000000" d="M76.5362 68.03217C76.5362 72.72885 72.72885 76.5362 68.03217 76.5362 63.33546 76.5362 59.52812 72.72885 59.52812 68.03217 59.52812 63.33546 63.33546 59.52812 68.03217 59.52812 72.72885 59.52812 76.5362 63.33546 76.5362 68.03217ZM68.03217 68.03217"/>
<use data-text="F" xlink:href="#font_1_54" transform="matrix(8.966579,0,0,-8.967117,75.62514,81.38722)"/>
<path transform="matrix(1.00002,0,0,-1.00008,10.599831,146.37642)" d="M144.56836 68.03217C144.56836 72.72885 140.76102 76.5362 136.06433 76.5362 131.36763 76.5362 127.56029 72.72885 127.56029 68.03217 127.56029 63.33546 131.36763 59.52812 136.06433 59.52812 140.76102 59.52812 144.56836 63.33546 144.56836 68.03217ZM136.06433 68.03217" fill="#ffffff"/>
<path transform="matrix(1.00002,0,0,-1.00008,10.599831,146.37642)" stroke-width=".3985" stroke-linecap="butt" stroke-miterlimit="10" stroke-linejoin="miter" fill="none" stroke="#000000" d="M144.56836 68.03217C144.56836 72.72885 140.76102 76.5362 136.06433 76.5362 131.36763 76.5362 127.56029 72.72885 127.56029 68.03217 127.56029 63.33546 131.36763 59.52812 136.06433 59.52812 140.76102 59.52812 144.56836 63.33546 144.56836 68.03217ZM136.06433 68.03217"/>
<use data-text="G" xlink:href="#font_1_58" transform="matrix(8.966579,0,0,-8.967117,143.0485,81.40122)"/>
<path transform="matrix(1.00002,0,0,-1.00008,10.599831,146.37642)" d="M212.60053 68.03217C212.60053 72.72885 208.7932 76.5362 204.0965 76.5362 199.3998 76.5362 195.59247 72.72885 195.59247 68.03217 195.59247 63.33546 199.3998 59.52812 204.0965 59.52812 208.7932 59.52812 212.60053 63.33546 212.60053 68.03217ZM204.0965 68.03217" fill="#ffffff"/>
<path transform="matrix(1.00002,0,0,-1.00008,10.599831,146.37642)" stroke-width=".3985" stroke-linecap="butt" stroke-miterlimit="10" stroke-linejoin="miter" fill="none" stroke="#000000" d="M212.60053 68.03217C212.60053 72.72885 208.7932 76.5362 204.0965 76.5362 199.3998 76.5362 195.59247 72.72885 195.59247 68.03217 195.59247 63.33546 199.3998 59.52812 204.0965 59.52812 208.7932 59.52812 212.60053 63.33546 212.60053 68.03217ZM204.0965 68.03217"/>
<use data-text="H" xlink:href="#font_1_62" transform="matrix(8.966579,0,0,-8.967117,211.24384,81.40122)"/>
<path transform="matrix(1.00002,0,0,-1.00008,10.599831,146.37642)" d="M8.50403 0C8.50403 4.69669 4.69669 8.50403 0 8.50403-4.69669 8.50403-8.50403 4.69669-8.50403 0-8.50403-4.69669-4.69669-8.50403 0-8.50403 4.69669-8.50403 8.50403-4.69669 8.50403 0ZM0 0" fill="#ffffff"/>
<path transform="matrix(1.00002,0,0,-1.00008,10.599831,146.37642)" stroke-width=".3985" stroke-linecap="butt" stroke-miterlimit="10" stroke-linejoin="miter" fill="none" stroke="#000000" d="M8.50403 0C8.50403 4.69669 4.69669 8.50403 0 8.50403-4.69669 8.50403-8.50403 4.69669-8.50403 0-8.50403-4.69669-4.69669-8.50403 0-8.50403 4.69669-8.50403 8.50403-4.69669 8.50403 0ZM0 0"/>
<use data-text="I" xlink:href="#font_1_65" transform="matrix(8.966579,0,0,-8.967117,8.936798,149.43866)"/>
<path transform="matrix(1.00002,0,0,-1.00008,10.599831,146.37642)" d="M76.5362 0C76.5362 4.69669 72.72885 8.50403 68.03217 8.50403 63.33546 8.50403 59.52812 4.69669 59.52812 0 59.52812-4.69669 63.33546-8.50403 68.03217-8.50403 72.72885-8.50403 76.5362-4.69669 76.5362 0ZM68.03217 0" fill="#ffffff"/>
<path transform="matrix(1.00002,0,0,-1.00008,10.599831,146.37642)" stroke-width=".3985" stroke-linecap="butt" stroke-miterlimit="10" stroke-linejoin="miter" fill="none" stroke="#000000" d="M76.5362 0C76.5362 4.69669 72.72885 8.50403 68.03217 8.50403 63.33546 8.50403 59.52812 4.69669 59.52812 0 59.52812-4.69669 63.33546-8.50403 68.03217-8.50403 72.72885-8.50403 76.5362-4.69669 76.5362 0ZM68.03217 0"/>
<use data-text="J" xlink:href="#font_1_67" transform="matrix(8.966579,0,0,-8.967117,76.26614,149.33966)"/>
<path transform="matrix(1.00002,0,0,-1.00008,10.599831,146.37642)" d="M144.56836 0C144.56836 4.69669 140.76102 8.50403 136.06433 8.50403 131.36763 8.50403 127.56029 4.69669 127.56029 0 127.56029-4.69669 131.36763-8.50403 136.06433-8.50403 140.76102-8.50403 144.56836-4.69669 144.56836 0ZM136.06433 0" fill="#ffffff"/>
<path transform="matrix(1.00002,0,0,-1.00008,10.599831,146.37642)" stroke-width=".3985" stroke-linecap="butt" stroke-miterlimit="10" stroke-linejoin="miter" fill="none" stroke="#000000" d="M144.56836 0C144.56836 4.69669 140.76102 8.50403 136.06433 8.50403 131.36763 8.50403 127.56029 4.69669 127.56029 0 127.56029-4.69669 131.36763-8.50403 136.06433-8.50403 140.76102-8.50403 144.56836-4.69669 144.56836 0ZM136.06433 0"/>
<use data-text="K" xlink:href="#font_1_69" transform="matrix(8.966579,0,0,-8.967117,143.08448,149.43866)"/>
<path transform="matrix(1.00002,0,0,-1.00008,10.599831,146.37642)" d="M212.60053 0C212.60053 4.69669 208.7932 8.50403 204.0965 8.50403 199.3998 8.50403 195.59247 4.69669 195.59247 0 195.59247-4.69669 199.3998-8.50403 204.0965-8.50403 208.7932-8.50403 212.60053-4.69669 212.60053 0ZM204.0965 0" fill="#ffffff"/>
<path transform="matrix(1.00002,0,0,-1.00008,10.599831,146.37642)" stroke-width=".3985" stroke-linecap="butt" stroke-miterlimit="10" stroke-linejoin="miter" fill="none" stroke="#000000" d="M212.60053 0C212.60053 4.69669 208.7932 8.50403 204.0965 8.50403 199.3998 8.50403 195.59247 4.69669 195.59247 0 195.59247-4.69669 199.3998-8.50403 204.0965-8.50403 208.7932-8.50403 212.60053-4.69669 212.60053 0ZM204.0965 0"/>
<use data-text="L" xlink:href="#font_1_71" transform="matrix(8.966579,0,0,-8.967117,211.82187,149.43866)"/>
<path transform="matrix(1.00002,0,0,-1.00008,10.599831,146.37642)" stroke-width=".3985" stroke-linecap="butt" stroke-miterlimit="10" stroke-linejoin="miter" fill="none" stroke="#000000" d="M8.7048 136.09477 59.34042 136.09372"/>
<path transform="matrix(1.00002,0,0,-1.00008,10.599831,146.37642)" d="M30.91025 136.2935H37.13497V143.75359H30.91025Z" fill="#ffffff"/>
<use data-text="3" xlink:href="#font_2_106" transform="matrix(7.9702599,0,0,-7.9707376,42.50747,8.908417)"/>
<path transform="matrix(1.00002,0,0,-1.00008,10.599831,146.37642)" stroke-width=".3985" stroke-linecap="butt" stroke-miterlimit="10" stroke-linejoin="miter" fill="none" stroke="#000000" d="M76.75008 136.09477 127.38571 136.09372"/>
<path transform="matrix(1.00002,0,0,-1.00008,10.599831,146.37642)" d="M98.95554 136.2935H105.18027V143.75359H98.95554Z" fill="#ffffff"/>
<use data-text="5" xlink:href="#font_2_56" transform="matrix(7.9702599,0,0,-7.9707376,110.55383,8.908417)"/>
<path transform="matrix(1.00002,0,0,-1.00008,10.599831,146.37642)" stroke-width=".3985" stroke-linecap="butt" stroke-miterlimit="10" stroke-linejoin="miter" fill="none" stroke="#000000" d="M144.79535 136.09477 195.43099 136.09372"/>
<path transform="matrix(1.00002,0,0,-1.00008,10.599831,146.37642)" d="M167.00081 136.2935H173.22553V143.66594H167.00081Z" fill="#ffffff"/>
<use data-text="4" xlink:href="#font_2_57" transform="matrix(7.9702599,0,0,-7.9707376,178.60019,9.075439)"/>
<path transform="matrix(1.00002,0,0,-1.00008,10.599831,146.37642)" stroke-width=".3985" stroke-linecap="butt" stroke-miterlimit="10" stroke-linejoin="miter" fill="none" stroke="#000000" d="M8.7048 68.04724 59.34042 68.04697"/>
<path transform="matrix(1.00002,0,0,-1.00008,10.599831,146.37642)" d="M30.91025 68.24637H37.13497V75.53911H30.91025Z" fill="#ffffff"/>
<use data-text="2" xlink:href="#font_2_107" transform="matrix(7.9702599,0,0,-7.9707376,42.50747,77.127887)"/>
<path transform="matrix(1.00002,0,0,-1.00008,10.599831,146.37642)" stroke-width=".3985" stroke-linecap="butt" stroke-miterlimit="10" stroke-linejoin="miter" fill="none" stroke="#000000" d="M76.75008 68.04724 127.38571 68.04697"/>
<path transform="matrix(1.00002,0,0,-1.00008,10.599831,146.37642)" d="M98.95554 68.24637H105.18027V75.53911H98.95554Z" fill="#ffffff"/>
<use data-text="2" xlink:href="#font_2_107" transform="matrix(7.9702599,0,0,-7.9707376,110.55383,77.127887)"/>
<path transform="matrix(1.00002,0,0,-1.00008,10.599831,146.37642)" stroke-width=".3985" stroke-linecap="butt" stroke-miterlimit="10" stroke-linejoin="miter" fill="none" stroke="#000000" d="M144.79535 68.04724 195.43099 68.04697"/>
<path transform="matrix(1.00002,0,0,-1.00008,10.599831,146.37642)" d="M167.00081 68.24637H173.22553V75.70645H167.00081Z" fill="#ffffff"/>
<use data-text="6" xlink:href="#font_2_101" transform="matrix(7.9702599,0,0,-7.9707376,178.60019,76.96086)"/>
<path transform="matrix(1.00002,0,0,-1.00008,10.599831,146.37642)" stroke-width=".3985" stroke-linecap="butt" stroke-miterlimit="10" stroke-linejoin="miter" fill="none" stroke="#000000" d="M8.70494 0H59.34029"/>
<path transform="matrix(1.00002,0,0,-1.00008,10.599831,146.37642)" d="M30.91023 .19925H37.13495V7.57169H30.91023Z" fill="#ffffff"/>
<use data-text="4" xlink:href="#font_2_57" transform="matrix(7.9702599,0,0,-7.9707376,42.50747,145.18033)"/>
<path transform="matrix(1.00002,0,0,-1.00008,10.599831,146.37642)" stroke-width=".3985" stroke-linecap="butt" stroke-miterlimit="10" stroke-linejoin="miter" fill="none" stroke="#000000" d="M76.75021 0H127.38557"/>
<path transform="matrix(1.00002,0,0,-1.00008,10.599831,146.37642)" d="M98.95552 .19925H105.18024V7.6593306H98.95552Z" fill="#ffffff"/>
<use data-text="5" xlink:href="#font_2_56" transform="matrix(7.9702599,0,0,-7.9707376,110.55383,145.0133)"/>
<path transform="matrix(1.00002,0,0,-1.00008,10.599831,146.37642)" stroke-width=".3985" stroke-linecap="butt" stroke-miterlimit="10" stroke-linejoin="miter" fill="none" stroke="#000000" d="M144.7955 0H195.43087"/>
<path transform="matrix(1.00002,0,0,-1.00008,10.599831,146.37642)" d="M167.00081 .19925H173.22553V7.6593306H167.00081Z" fill="#ffffff"/>
<use data-text="3" xlink:href="#font_2_106" transform="matrix(7.9702599,0,0,-7.9707376,178.60019,145.0133)"/>
<path transform="matrix(1.00002,0,0,-1.00008,10.599831,146.37642)" stroke-width=".3985" stroke-linecap="butt" stroke-miterlimit="10" stroke-linejoin="miter" fill="none" stroke="#000000" d="M0 127.38557V76.75021"/>
<path transform="matrix(1.00002,0,0,-1.00008,10.599831,146.37642)" d="M-3.11235 102.26715H3.11237V109.55989H-3.11235Z" fill="#ffffff"/>
<use data-text="2" xlink:href="#font_2_107" transform="matrix(7.9702599,0,0,-7.9707376,8.483788,43.105157)"/>
<path transform="matrix(1.00002,0,0,-1.00008,10.599831,146.37642)" stroke-width=".3985" stroke-linecap="butt" stroke-miterlimit="10" stroke-linejoin="miter" fill="none" stroke="#000000" d="M68.04724 127.38571 68.04697 76.75008"/>
<path transform="matrix(1.00002,0,0,-1.00008,10.599831,146.37642)" d="M64.93475 102.26715H71.15947V109.63959H64.93475Z" fill="#ffffff"/>
<use data-text="4" xlink:href="#font_2_57" transform="matrix(7.9702599,0,0,-7.9707376,76.53215,43.105157)"/>
<path transform="matrix(1.00002,0,0,-1.00008,10.599831,146.37642)" stroke-width=".3985" stroke-linecap="butt" stroke-miterlimit="10" stroke-linejoin="miter" fill="none" stroke="#000000" d="M136.09477 127.38571 136.09372 76.75008"/>
<path transform="matrix(1.00002,0,0,-1.00008,10.599831,146.37642)" d="M132.98189 102.26715H139.2066V109.727237H132.98189Z" fill="#ffffff"/>
<use data-text="5" xlink:href="#font_2_56" transform="matrix(7.9702599,0,0,-7.9707376,144.5805,42.93715)"/>
<path transform="matrix(1.00002,0,0,-1.00008,10.599831,146.37642)" stroke-width=".3985" stroke-linecap="butt" stroke-miterlimit="10" stroke-linejoin="miter" fill="none" stroke="#000000" d="M204.14234 127.38571 204.14087 76.75008"/>
<path transform="matrix(1.00002,0,0,-1.00008,10.599831,146.37642)" d="M201.02924 102.26715H207.25395V109.727237H201.02924Z" fill="#ffffff"/>
<use data-text="3" xlink:href="#font_2_106" transform="matrix(7.9702599,0,0,-7.9707376,212.62989,42.93715)"/>
<path transform="matrix(1.00002,0,0,-1.00008,10.599831,146.37642)" stroke-width=".3985" stroke-linecap="butt" stroke-miterlimit="10" stroke-linejoin="miter" fill="none" stroke="#000000" d="M0 59.34029V8.70494"/>
<path transform="matrix(1.00002,0,0,-1.00008,10.599831,146.37642)" d="M-3.11235 34.22186H3.11237V41.68194H-3.11235Z" fill="#ffffff"/>
<use data-text="3" xlink:href="#font_2_106" transform="matrix(7.9702599,0,0,-7.9707376,8.483788,110.98859)"/>
<path transform="matrix(1.00002,0,0,-1.00008,10.599831,146.37642)" stroke-width=".3985" stroke-linecap="butt" stroke-miterlimit="10" stroke-linejoin="miter" fill="none" stroke="#000000" d="M68.04724 59.34042 68.04697 8.7048"/>
<path transform="matrix(1.00002,0,0,-1.00008,10.599831,146.37642)" d="M64.93475 34.22186H71.15947V41.5146H64.93475Z" fill="#ffffff"/>
<use data-text="2" xlink:href="#font_2_107" transform="matrix(7.9702599,0,0,-7.9707376,76.53215,111.15561)"/>
<path transform="matrix(1.00002,0,0,-1.00008,10.599831,146.37642)" stroke-width=".3985" stroke-linecap="butt" stroke-miterlimit="10" stroke-linejoin="miter" fill="none" stroke="#000000" d="M136.09477 59.34042 136.09372 8.7048"/>
<path transform="matrix(1.00002,0,0,-1.00008,10.599831,146.37642)" d="M132.98189 34.22186H139.2066V41.5943H132.98189Z" fill="#ffffff"/>
<use data-text="4" xlink:href="#font_2_57" transform="matrix(7.9702599,0,0,-7.9707376,144.5805,111.15561)"/>
<path transform="matrix(1.00002,0,0,-1.00008,10.599831,146.37642)" stroke-width=".3985" stroke-linecap="butt" stroke-miterlimit="10" stroke-linejoin="miter" fill="none" stroke="#000000" d="M204.14234 59.34042 204.14087 8.7048"/>
<path transform="matrix(1.00002,0,0,-1.00008,10.599831,146.37642)" d="M201.02924 34.22186H207.25395V41.68194H201.02924Z" fill="#ffffff"/>
<use data-text="5" xlink:href="#font_2_56" transform="matrix(7.9702599,0,0,-7.9707376,212.62989,110.98859)"/>
<path transform="matrix(1.00002,0,0,-1.00008,10.599831,146.37642)" stroke-width=".3985" stroke-linecap="butt" stroke-miterlimit="10" stroke-linejoin="miter" fill="none" stroke="#000000" d="M74.20245 129.9376 129.93708 74.2023"/>
<path transform="matrix(1.00002,0,0,-1.00008,10.599831,146.37642)" d="M113.41576 91.12234H124.28905V103.31869H113.41576Z" fill="#ffffff"/>
<use data-text="7" xlink:href="#font_2_100" transform="matrix(7.9702599,0,0,-7.9707376,127.338169,51.75885)"/>
<path transform="matrix(1.00002,0,0,-1.00008,10.599831,146.37642)" stroke-width=".3985" stroke-linecap="butt" stroke-miterlimit="10" stroke-linejoin="miter" fill="none" stroke="#000000" d="M129.9352 129.9352 74.20059 74.20059"/>
<path transform="matrix(1.00002,0,0,-1.00008,10.599831,146.37642)" d="M90.99535 89.75996H101.868648V101.86863H90.99535Z" fill="#ffffff"/>
<use data-text="6" xlink:href="#font_2_101" transform="matrix(7.9702599,0,0,-7.9707376,104.917728,53.120958)"/>
<path transform="matrix(1.00002,0,0,-1.00008,10.599831,146.37642)" stroke-width=".3985" stroke-linecap="butt" stroke-miterlimit="10" stroke-linejoin="miter" fill="none" stroke="#000000" d="M6.15585 61.89087 61.8906 6.15585"/>
<path transform="matrix(1.00002,0,0,-1.00008,10.599831,146.37642)" d="M30.91086 34.22263H37.135583V41.68271H30.91086Z" fill="#ffffff"/>
<use data-text="8" xlink:href="#font_2_51" transform="matrix(7.9702599,0,0,-7.9707376,42.50747,110.98759)"/>
<path transform="matrix(1.00002,0,0,-1.00008,10.599831,146.37642)" stroke-width=".3985" stroke-linecap="butt" stroke-miterlimit="10" stroke-linejoin="miter" fill="none" stroke="#000000" d="M142.24774 61.89232 197.98235 6.15704"/>
<path transform="matrix(1.00002,0,0,-1.00008,10.599831,146.37642)" d="M167.00269 34.22394H173.2274V41.68402H167.00269Z" fill="#ffffff"/>
<use data-text="9" xlink:href="#font_2_78" transform="matrix(7.9702599,0,0,-7.9707376,178.60218,110.98559)"/>
</svg>
